<mxfile host="app.diagrams.net" modified="2023-09-12T19:35:39.115Z" agent="Mozilla/5.0 (Windows NT 10.0; Win64; x64) AppleWebKit/537.36 (KHTML, like Gecko) Chrome/115.0.0.0 Safari/537.36 OPR/101.0.0.0" etag="67TZeL9-0auruxWtuMct" version="21.7.4" type="device">
  <diagram name="Seite-1" id="BAWt1HLnT4WBNr3hunWq">
    <mxGraphModel dx="1161" dy="664" grid="1" gridSize="10" guides="1" tooltips="1" connect="1" arrows="1" fold="1" page="1" pageScale="1" pageWidth="827" pageHeight="1169" math="0" shadow="0">
      <root>
        <mxCell id="0" />
        <mxCell id="1" parent="0" />
        <mxCell id="Ajewz8YUoXNlqYzXFVEX-7" value="" style="shape=flexArrow;endArrow=classic;startArrow=block;html=1;rounded=0;width=5.573770491803279;startSize=4.813114754098361;endSize=4.813114754098361;endWidth=11.615157215802205;startWidth=11.615157215802205;startFill=0;fillColor=#dae8fc;strokeColor=#6c8ebf;" parent="1" edge="1">
          <mxGeometry width="100" height="100" relative="1" as="geometry">
            <mxPoint x="224.66" y="490" as="sourcePoint" />
            <mxPoint x="224.66" y="440" as="targetPoint" />
          </mxGeometry>
        </mxCell>
        <mxCell id="Ajewz8YUoXNlqYzXFVEX-8" value="&lt;font style=&quot;font-size: 12px;&quot;&gt;Bus&lt;/font&gt;" style="rounded=0;whiteSpace=wrap;html=1;fillColor=#dae8fc;strokeColor=#6c8ebf;" parent="1" vertex="1">
          <mxGeometry x="200" y="420" width="400" height="20" as="geometry" />
        </mxCell>
        <mxCell id="Ajewz8YUoXNlqYzXFVEX-11" value="&lt;font style=&quot;font-size: 12px;&quot;&gt;LSU 0&lt;/font&gt;" style="rounded=0;whiteSpace=wrap;html=1;fontStyle=0;fillColor=#dae8fc;strokeColor=#6c8ebf;" parent="1" vertex="1">
          <mxGeometry x="200" y="490" width="50" height="40" as="geometry" />
        </mxCell>
        <mxCell id="Ajewz8YUoXNlqYzXFVEX-24" value="" style="ellipse;whiteSpace=wrap;html=1;aspect=fixed;fillColor=#fff2cc;strokeColor=#d6b656;" parent="1" vertex="1">
          <mxGeometry x="400" y="540" width="10" height="10" as="geometry" />
        </mxCell>
        <mxCell id="Ajewz8YUoXNlqYzXFVEX-25" value="&lt;font style=&quot;font-size: 12px;&quot;&gt;Beschleuniger-Atome&lt;/font&gt;" style="text;html=1;strokeColor=none;fillColor=none;align=left;verticalAlign=middle;whiteSpace=wrap;rounded=0;" parent="1" vertex="1">
          <mxGeometry x="410" y="540" width="130" height="10" as="geometry" />
        </mxCell>
        <mxCell id="Ajewz8YUoXNlqYzXFVEX-26" value="" style="ellipse;whiteSpace=wrap;html=1;aspect=fixed;fillColor=#dae8fc;strokeColor=#6c8ebf;" parent="1" vertex="1">
          <mxGeometry x="270" y="540" width="10" height="10" as="geometry" />
        </mxCell>
        <mxCell id="Ajewz8YUoXNlqYzXFVEX-27" value="&lt;font style=&quot;font-size: 12px;&quot;&gt;icore-Komponenten&lt;/font&gt;" style="text;html=1;strokeColor=none;fillColor=none;align=left;verticalAlign=middle;whiteSpace=wrap;rounded=0;" parent="1" vertex="1">
          <mxGeometry x="280" y="540" width="130" height="10" as="geometry" />
        </mxCell>
        <mxCell id="Ajewz8YUoXNlqYzXFVEX-28" value="" style="ellipse;whiteSpace=wrap;html=1;aspect=fixed;fillColor=#f8cecc;strokeColor=#b85450;" parent="1" vertex="1">
          <mxGeometry x="400" y="560" width="10" height="10" as="geometry" />
        </mxCell>
        <mxCell id="Ajewz8YUoXNlqYzXFVEX-29" value="&lt;font style=&quot;font-size: 12px;&quot;&gt;Umordnungsatome&lt;/font&gt;" style="text;html=1;strokeColor=none;fillColor=none;align=left;verticalAlign=middle;whiteSpace=wrap;rounded=0;" parent="1" vertex="1">
          <mxGeometry x="410" y="560" width="130" height="10" as="geometry" />
        </mxCell>
        <mxCell id="bZe3JVLaW3I2OVGp3a-t-1" value="B0" style="rounded=0;whiteSpace=wrap;html=1;fontStyle=0;fillColor=#f8cecc;strokeColor=#b85450;" vertex="1" parent="1">
          <mxGeometry x="270" y="490" width="50" height="40" as="geometry" />
        </mxCell>
        <mxCell id="bZe3JVLaW3I2OVGp3a-t-2" value="&lt;font style=&quot;font-size: 12px;&quot;&gt;LSU 1&lt;/font&gt;" style="rounded=0;whiteSpace=wrap;html=1;fontStyle=0;fillColor=#dae8fc;strokeColor=#6c8ebf;" vertex="1" parent="1">
          <mxGeometry x="550" y="490" width="50" height="40" as="geometry" />
        </mxCell>
        <mxCell id="bZe3JVLaW3I2OVGp3a-t-3" value="A0" style="rounded=0;whiteSpace=wrap;html=1;fontStyle=0;fillColor=#fff2cc;strokeColor=#d6b656;" vertex="1" parent="1">
          <mxGeometry x="340" y="490" width="50" height="40" as="geometry" />
        </mxCell>
        <mxCell id="bZe3JVLaW3I2OVGp3a-t-5" value="A1" style="rounded=0;whiteSpace=wrap;html=1;fontStyle=0;fillColor=#fff2cc;strokeColor=#d6b656;" vertex="1" parent="1">
          <mxGeometry x="410" y="490" width="50" height="40" as="geometry" />
        </mxCell>
        <mxCell id="bZe3JVLaW3I2OVGp3a-t-6" value="B1" style="rounded=0;whiteSpace=wrap;html=1;fontStyle=0;fillColor=#f8cecc;strokeColor=#b85450;" vertex="1" parent="1">
          <mxGeometry x="480" y="490" width="50" height="40" as="geometry" />
        </mxCell>
        <mxCell id="bZe3JVLaW3I2OVGp3a-t-7" value="" style="shape=flexArrow;endArrow=classic;startArrow=block;html=1;rounded=0;width=5.573770491803279;startSize=4.813114754098361;endSize=4.813114754098361;endWidth=11.615157215802205;startWidth=11.615157215802205;startFill=0;fillColor=#dae8fc;strokeColor=#6c8ebf;" edge="1" parent="1">
          <mxGeometry width="100" height="100" relative="1" as="geometry">
            <mxPoint x="574.66" y="490" as="sourcePoint" />
            <mxPoint x="574.66" y="440" as="targetPoint" />
          </mxGeometry>
        </mxCell>
        <mxCell id="bZe3JVLaW3I2OVGp3a-t-8" value="" style="shape=flexArrow;endArrow=classic;startArrow=block;html=1;rounded=0;width=5.573770491803279;startSize=4.813114754098361;endSize=4.813114754098361;endWidth=11.615157215802205;startWidth=11.615157215802205;startFill=0;fillColor=#fff2cc;strokeColor=#d6b656;" edge="1" parent="1">
          <mxGeometry width="100" height="100" relative="1" as="geometry">
            <mxPoint x="364.65999999999997" y="490" as="sourcePoint" />
            <mxPoint x="364.65999999999997" y="440" as="targetPoint" />
          </mxGeometry>
        </mxCell>
        <mxCell id="bZe3JVLaW3I2OVGp3a-t-9" value="" style="shape=flexArrow;endArrow=classic;startArrow=block;html=1;rounded=0;width=5.573770491803279;startSize=4.813114754098361;endSize=4.813114754098361;endWidth=11.615157215802205;startWidth=11.615157215802205;startFill=0;fillColor=#fff2cc;strokeColor=#d6b656;" edge="1" parent="1">
          <mxGeometry width="100" height="100" relative="1" as="geometry">
            <mxPoint x="434.65999999999997" y="490" as="sourcePoint" />
            <mxPoint x="434.65999999999997" y="440" as="targetPoint" />
          </mxGeometry>
        </mxCell>
        <mxCell id="bZe3JVLaW3I2OVGp3a-t-10" value="" style="shape=flexArrow;endArrow=classic;startArrow=block;html=1;rounded=0;width=5.573770491803279;startSize=4.813114754098361;endSize=4.813114754098361;endWidth=11.615157215802205;startWidth=11.615157215802205;startFill=0;fillColor=#f8cecc;strokeColor=#b85450;" edge="1" parent="1">
          <mxGeometry width="100" height="100" relative="1" as="geometry">
            <mxPoint x="294.65999999999997" y="490" as="sourcePoint" />
            <mxPoint x="294.65999999999997" y="440" as="targetPoint" />
          </mxGeometry>
        </mxCell>
        <mxCell id="bZe3JVLaW3I2OVGp3a-t-11" value="" style="shape=flexArrow;endArrow=classic;startArrow=block;html=1;rounded=0;width=5.573770491803279;startSize=4.813114754098361;endSize=4.813114754098361;endWidth=11.615157215802205;startWidth=11.615157215802205;startFill=0;fillColor=#f8cecc;strokeColor=#b85450;" edge="1" parent="1">
          <mxGeometry width="100" height="100" relative="1" as="geometry">
            <mxPoint x="504.65999999999997" y="490" as="sourcePoint" />
            <mxPoint x="504.65999999999997" y="440" as="targetPoint" />
          </mxGeometry>
        </mxCell>
      </root>
    </mxGraphModel>
  </diagram>
</mxfile>
